# xmcd
#
# Track frame offsets:
#	150
#	13828
#	29436
#	42612
#	57279
#	74235
#	87412
#	98022
#	109162
#	125878
#	141329
#	153168
#	168430
#	185157
#	206660
#	222335
#	239420
#	256886
#	277164
#	297916
#	316960
#
# Disc length: 4477 seconds
#
# Revision: 0
# Processed by: cddbd v1.5.2PL0 Copyright (c) Steve Scherf et al.
# Submitted via: EasyCDDAExtractor 10.0.4.1
#
DISCID=54117b15
DTITLE=Various Artist - Floorfillers III [CDTwo)
DYEAR=2007
DGENRE=Pop
TTITLE0=KC and The Sunshine Band - That's The Way (I Like It)
TTITLE1=Chic - Le Freak
TTITLE2=The Jackson 5 - I Want You Back
TTITLE3=Racey - Lay Your Love On Me
TTITLE4=Suzi Quatro - Devil Gate Drive
TTITLE5=Dr Hook - Walk Right In
TTITLE6=Little Eva - The Locomotion
TTITLE7=The Beach Boys - Wouldn't It Be Nice
TTITLE8=Bananarama - I Want You Back
TTITLE9=Duran Duran - Girls On Film
TTITLE10=Devo - Whip It
TTITLE11=Kim Wilde - Kids In America
TTITLE12=The Vapors - Turning Japanese
TTITLE13=Billy Idol - Dancing With Myself
TTITLE14=Martha and The Muffins - Echo Beach
TTITLE15=Spandau Ballet - Gold
TTITLE16=Irene Cara - Flashdance... What A Feeling
TTITLE17=Culture Club - Miss Me Blind
TTITLE18=Blondie - The Tide Is High
TTITLE19=Robert Palmer - Addicted To Love
TTITLE20=Joe Cocker - You Can Leave Your Hat On
EXTD=
EXTT0=
EXTT1=
EXTT2=
EXTT3=
EXTT4=
EXTT5=
EXTT6=
EXTT7=
EXTT8=
EXTT9=
EXTT10=
EXTT11=
EXTT12=
EXTT13=
EXTT14=
EXTT15=
EXTT16=
EXTT17=
EXTT18=
EXTT19=
EXTT20=
PLAYORDER=
